<svg xmlns="http://www.w3.org/2000/svg" xmlns:xlink="http://www.w3.org/1999/xlink" width="108" zoomAndPan="magnify" viewBox="0 0 81 80.999996" height="108" preserveAspectRatio="xMidYMid meet" version="1.0"><defs><clipPath id="1fcc70461d"><path d="M 23.023438 34 L 58.273438 34 L 58.273438 55 L 23.023438 55 Z M 23.023438 34 " clip-rule="nonzero"/></clipPath><clipPath id="ae74926f48"><path d="M 43 25.820312 L 54 25.820312 L 54 42 L 43 42 Z M 43 25.820312 " clip-rule="nonzero"/></clipPath></defs><path fill="#f38122" d="M 80.941406 40.5 C 80.941406 41.828125 80.875 43.148438 80.746094 44.46875 C 80.617188 45.789062 80.421875 47.101562 80.164062 48.402344 C 79.90625 49.703125 79.585938 50.988281 79.199219 52.257812 C 78.816406 53.527344 78.371094 54.773438 77.863281 56 C 77.355469 57.222656 76.789062 58.421875 76.167969 59.59375 C 75.542969 60.761719 74.863281 61.898438 74.125 63 C 73.390625 64.105469 72.601562 65.167969 71.761719 66.191406 C 70.921875 67.21875 70.03125 68.199219 69.097656 69.136719 C 68.160156 70.078125 67.179688 70.964844 66.15625 71.808594 C 65.132812 72.648438 64.070312 73.4375 62.96875 74.175781 C 61.867188 74.910156 60.730469 75.59375 59.5625 76.21875 C 58.394531 76.84375 57.199219 77.410156 55.976562 77.917969 C 54.753906 78.425781 53.507812 78.871094 52.238281 79.257812 C 50.972656 79.640625 49.6875 79.964844 48.390625 80.222656 C 47.089844 80.480469 45.78125 80.675781 44.464844 80.804688 C 43.144531 80.933594 41.824219 81 40.5 81 C 39.175781 81 37.855469 80.933594 36.535156 80.804688 C 35.21875 80.675781 33.910156 80.480469 32.609375 80.222656 C 31.3125 79.964844 30.027344 79.640625 28.761719 79.257812 C 27.492188 78.871094 26.246094 78.425781 25.023438 77.917969 C 23.800781 77.410156 22.605469 76.84375 21.4375 76.21875 C 20.269531 75.59375 19.132812 74.910156 18.03125 74.175781 C 16.929688 73.4375 15.867188 72.648438 14.84375 71.808594 C 13.820312 70.964844 12.839844 70.078125 11.902344 69.136719 C 10.96875 68.199219 10.078125 67.21875 9.238281 66.195312 C 8.398438 65.167969 7.609375 64.105469 6.875 63 C 6.136719 61.898438 5.457031 60.761719 4.832031 59.59375 C 4.210938 58.421875 3.644531 57.222656 3.136719 56 C 2.628906 54.773438 2.183594 53.527344 1.800781 52.257812 C 1.414062 50.988281 1.09375 49.703125 0.835938 48.402344 C 0.578125 47.101562 0.382812 45.789062 0.253906 44.46875 C 0.125 43.148438 0.0585938 41.828125 0.0585938 40.5 C 0.0585938 39.175781 0.125 37.851562 0.253906 36.53125 C 0.382812 35.210938 0.578125 33.898438 0.835938 32.597656 C 1.09375 31.296875 1.414062 30.011719 1.800781 28.742188 C 2.183594 27.472656 2.628906 26.226562 3.136719 25 C 3.644531 23.777344 4.210938 22.578125 4.832031 21.410156 C 5.457031 20.238281 6.136719 19.101562 6.875 18 C 7.609375 16.898438 8.398438 15.832031 9.238281 14.808594 C 10.078125 13.78125 10.96875 12.800781 11.902344 11.863281 C 12.839844 10.925781 13.820312 10.035156 14.84375 9.191406 C 15.867188 8.351562 16.929688 7.5625 18.03125 6.824219 C 19.132812 6.089844 20.269531 5.40625 21.4375 4.78125 C 22.605469 4.15625 23.800781 3.589844 25.023438 3.082031 C 26.246094 2.574219 27.492188 2.128906 28.761719 1.742188 C 30.027344 1.359375 31.3125 1.035156 32.609375 0.777344 C 33.910156 0.519531 35.21875 0.324219 36.535156 0.195312 C 37.855469 0.0664062 39.175781 0 40.5 0 C 41.824219 0 43.144531 0.0664062 44.464844 0.195312 C 45.78125 0.324219 47.089844 0.519531 48.390625 0.777344 C 49.6875 1.035156 50.972656 1.359375 52.238281 1.742188 C 53.507812 2.128906 54.753906 2.574219 55.976562 3.082031 C 57.199219 3.589844 58.394531 4.15625 59.5625 4.78125 C 60.730469 5.40625 61.867188 6.089844 62.96875 6.824219 C 64.070312 7.5625 65.132812 8.351562 66.15625 9.191406 C 67.179688 10.035156 68.160156 10.925781 69.097656 11.863281 C 70.03125 12.800781 70.921875 13.78125 71.761719 14.808594 C 72.601562 15.832031 73.390625 16.898438 74.125 18 C 74.863281 19.101562 75.542969 20.238281 76.167969 21.410156 C 76.789062 22.578125 77.355469 23.777344 77.863281 25 C 78.371094 26.226562 78.816406 27.472656 79.199219 28.742188 C 79.585938 30.011719 79.90625 31.296875 80.164062 32.597656 C 80.421875 33.898438 80.617188 35.210938 80.746094 36.53125 C 80.875 37.851562 80.941406 39.175781 80.941406 40.5 Z M 80.941406 40.5 " fill-opacity="1" fill-rule="nonzero"/><g clip-path="url(#1fcc70461d)"><path stroke-linecap="round" transform="matrix(0.702765, 0, 0, 0.694188, -72.495752, -149.972625)" fill="none" stroke-linejoin="round" d="M 180.786488 275.34991 C 182.17053 276.554105 183.437845 277.882096 184.577318 279.322629 C 184.860796 279.688389 184.999756 280.104793 184.999756 280.566214 C 184.999756 281.027635 184.860796 281.444039 184.577318 281.809799 C 181.742533 285.512418 172.554497 294.133106 160.998583 294.133106 C 149.448227 294.133106 140.254632 285.512418 137.425407 281.809799 C 137.141928 281.444039 137.002968 281.027635 137.002968 280.566214 C 137.002968 280.104793 137.141928 279.688389 137.425407 279.322629 C 140.254632 275.614383 149.448227 266.999322 160.998583 266.999322 " stroke="#ffffff" stroke-width="2" stroke-opacity="1" stroke-miterlimit="4"/></g><path stroke-linecap="round" transform="matrix(0.702765, 0, 0, 0.694188, -72.190055, -149.972625)" fill="none" stroke-linejoin="round" d="M 174.131646 280.566214 C 174.131646 281.455293 174.042711 282.338745 173.870401 283.210942 C 173.698091 284.08314 173.436846 284.932829 173.097783 285.754383 C 172.758721 286.581564 172.341841 287.358101 171.847143 288.100875 C 171.352446 288.84365 170.785489 289.530154 170.15739 290.15476 C 169.52929 290.784993 168.840049 291.347701 168.100781 291.842884 C 167.361514 292.338067 166.57778 292.760099 165.755136 293.097723 C 164.932493 293.440975 164.087616 293.699821 163.209389 293.868634 C 162.33672 294.043073 161.458493 294.133106 160.56359 294.133106 C 159.674246 294.133106 158.790461 294.043073 157.917792 293.874261 C 157.045123 293.699821 156.194688 293.440975 155.372044 293.097723 C 154.549401 292.760099 153.771225 292.343695 153.026399 291.848511 C 152.287132 291.353328 151.603449 290.79062 150.969791 290.160387 C 150.341692 289.530154 149.780293 288.84365 149.285596 288.100875 C 148.790898 287.363728 148.374018 286.581564 148.029397 285.76001 C 147.690335 284.932829 147.434649 284.088767 147.25678 283.210942 C 147.084469 282.338745 146.995535 281.455293 146.995535 280.566214 C 146.995535 279.677135 147.084469 278.793683 147.25678 277.921486 C 147.434649 277.043661 147.690335 276.199599 148.029397 275.372418 C 148.374018 274.550864 148.790898 273.7687 149.285596 273.031553 C 149.780293 272.288778 150.341692 271.602274 150.969791 270.972041 C 151.603449 270.341808 152.287132 269.7791 153.026399 269.283917 C 153.765667 268.788733 154.549401 268.372329 155.372044 268.034705 C 156.194688 267.691453 157.045123 267.432607 157.917792 267.258167 C 158.790461 267.089355 159.674246 266.999322 160.56359 266.999322 " stroke="#ffffff" stroke-width="2" stroke-opacity="1" stroke-miterlimit="4"/><path stroke-linecap="round" transform="matrix(0.702765, 0, 0, 0.694188, -71.976414, -149.761598)" fill="none" stroke-linejoin="round" d="M 166.16817 278.174575 C 166.323805 278.619115 166.429415 279.074908 166.47944 279.541956 C 166.535024 280.009004 166.535024 280.476052 166.484999 280.943099 C 166.429415 281.410147 166.329363 281.865941 166.173728 282.31048 C 166.018093 282.749392 165.817991 283.171423 165.567863 283.570946 C 165.317734 283.970469 165.028698 284.336229 164.695194 284.668227 C 164.367248 285.000225 164.000394 285.292833 163.600189 285.546052 C 163.205542 285.793643 162.783104 285.996218 162.338432 286.153776 C 161.89376 286.311335 161.443529 286.412622 160.971065 286.468893 C 160.50416 286.519537 160.037254 286.519537 159.570348 286.468893 C 159.103443 286.412622 158.647654 286.311335 158.20854 286.153776 C 157.763868 286.001845 157.34143 285.79927 156.941225 285.546052 C 156.546579 285.29846 156.179724 285.005852 155.84622 284.673854 C 155.512716 284.341856 155.223679 283.976096 154.973551 283.576573 C 154.723423 283.182677 154.523321 282.760646 154.367686 282.316107 C 154.21205 281.871568 154.106441 281.415774 154.056415 280.948726 C 154.000831 280.481679 154.000831 280.014631 154.056415 279.547583 C 154.106441 279.080535 154.21205 278.624742 154.367686 278.180202 C 154.523321 277.74129 154.728982 277.319259 154.97911 276.919736 C 155.229238 276.520214 155.518275 276.16008 155.851779 275.828083 C 156.185283 275.496085 156.552137 275.203477 156.952342 274.955885 C 157.346988 274.702666 157.769427 274.500091 158.214099 274.34816 C 158.658771 274.190602 159.11456 274.089315 159.581465 274.038671 C 160.048371 273.988027 160.515277 273.988027 160.982182 274.038671 C 161.449088 274.094942 161.904877 274.201856 162.349549 274.353787 " stroke="#ffffff" stroke-width="2" stroke-opacity="1" stroke-miterlimit="4"/><g clip-path="url(#ae74926f48)"><path stroke-linecap="round" transform="matrix(0.702765, 0, 0, 0.694188, -71.640491, -150.334996)" fill="none" stroke-linejoin="round" d="M 171.259685 255.001074 C 171.259685 255.001074 177.524002 264.071929 177.524002 269.063149 C 177.524002 274.82528 173.077282 275.871917 171.259685 275.871917 C 169.447646 275.871917 165.000926 274.82528 165.000926 269.063149 C 165.000926 264.071929 171.259685 255.001074 171.259685 255.001074 Z M 171.259685 255.001074 " stroke="#ffffff" stroke-width="2" stroke-opacity="1" stroke-miterlimit="4"/></g></svg>