<svg xmlns="http://www.w3.org/2000/svg" xmlns:xlink="http://www.w3.org/1999/xlink" width="108" zoomAndPan="magnify" viewBox="0 0 81 80.999996" height="108" preserveAspectRatio="xMidYMid meet" version="1.0"><defs><clipPath id="fba2e4aa88"><path d="M 24.074219 24.074219 L 57 24.074219 L 57 57 L 24.074219 57 Z M 24.074219 24.074219 " clip-rule="nonzero"/></clipPath><clipPath id="16de103ebf"><path d="M 21.578125 33 L 50 33 L 50 57.511719 L 21.578125 57.511719 Z M 21.578125 33 " clip-rule="nonzero"/></clipPath><clipPath id="c77b8686fa"><path d="M 31 28 L 59.078125 28 L 59.078125 53 L 31 53 Z M 31 28 " clip-rule="nonzero"/></clipPath><clipPath id="b76b6e4912"><path d="M 35 23.761719 L 42 23.761719 L 42 31 L 35 31 Z M 35 23.761719 " clip-rule="nonzero"/></clipPath></defs><path fill="#f38122" d="M 80.941406 40.5 C 80.941406 41.828125 80.875 43.148438 80.746094 44.46875 C 80.617188 45.789062 80.421875 47.101562 80.164062 48.402344 C 79.90625 49.703125 79.585938 50.988281 79.199219 52.257812 C 78.816406 53.527344 78.371094 54.773438 77.863281 56 C 77.355469 57.222656 76.789062 58.421875 76.167969 59.59375 C 75.542969 60.761719 74.863281 61.898438 74.125 63 C 73.390625 64.105469 72.601562 65.167969 71.761719 66.191406 C 70.921875 67.21875 70.03125 68.199219 69.097656 69.136719 C 68.160156 70.078125 67.179688 70.964844 66.15625 71.808594 C 65.132812 72.648438 64.070312 73.4375 62.96875 74.175781 C 61.867188 74.910156 60.730469 75.59375 59.5625 76.21875 C 58.394531 76.84375 57.199219 77.410156 55.976562 77.917969 C 54.753906 78.425781 53.507812 78.871094 52.238281 79.257812 C 50.972656 79.640625 49.6875 79.964844 48.390625 80.222656 C 47.089844 80.480469 45.78125 80.675781 44.464844 80.804688 C 43.144531 80.933594 41.824219 81 40.5 81 C 39.175781 81 37.855469 80.933594 36.535156 80.804688 C 35.21875 80.675781 33.910156 80.480469 32.609375 80.222656 C 31.3125 79.964844 30.027344 79.640625 28.761719 79.257812 C 27.492188 78.871094 26.246094 78.425781 25.023438 77.917969 C 23.800781 77.410156 22.605469 76.84375 21.4375 76.21875 C 20.269531 75.59375 19.132812 74.910156 18.03125 74.175781 C 16.929688 73.4375 15.867188 72.648438 14.84375 71.808594 C 13.820312 70.964844 12.839844 70.078125 11.902344 69.136719 C 10.96875 68.199219 10.078125 67.21875 9.238281 66.195312 C 8.398438 65.167969 7.609375 64.105469 6.875 63 C 6.136719 61.898438 5.457031 60.761719 4.832031 59.59375 C 4.210938 58.421875 3.644531 57.222656 3.136719 56 C 2.628906 54.773438 2.183594 53.527344 1.800781 52.257812 C 1.414062 50.988281 1.09375 49.703125 0.835938 48.402344 C 0.578125 47.101562 0.382812 45.789062 0.253906 44.46875 C 0.125 43.148438 0.0585938 41.828125 0.0585938 40.5 C 0.0585938 39.175781 0.125 37.851562 0.253906 36.53125 C 0.382812 35.210938 0.578125 33.898438 0.835938 32.597656 C 1.09375 31.296875 1.414062 30.011719 1.800781 28.742188 C 2.183594 27.472656 2.628906 26.226562 3.136719 25 C 3.644531 23.777344 4.210938 22.578125 4.832031 21.410156 C 5.457031 20.238281 6.136719 19.101562 6.875 18 C 7.609375 16.898438 8.398438 15.832031 9.238281 14.808594 C 10.078125 13.78125 10.96875 12.800781 11.902344 11.863281 C 12.839844 10.925781 13.820312 10.035156 14.84375 9.191406 C 15.867188 8.351562 16.929688 7.5625 18.03125 6.824219 C 19.132812 6.089844 20.269531 5.40625 21.4375 4.78125 C 22.605469 4.15625 23.800781 3.589844 25.023438 3.082031 C 26.246094 2.574219 27.492188 2.128906 28.761719 1.742188 C 30.027344 1.359375 31.3125 1.035156 32.609375 0.777344 C 33.910156 0.519531 35.21875 0.324219 36.535156 0.195312 C 37.855469 0.0664062 39.175781 0 40.5 0 C 41.824219 0 43.144531 0.0664062 44.464844 0.195312 C 45.78125 0.324219 47.089844 0.519531 48.390625 0.777344 C 49.6875 1.035156 50.972656 1.359375 52.238281 1.742188 C 53.507812 2.128906 54.753906 2.574219 55.976562 3.082031 C 57.199219 3.589844 58.394531 4.15625 59.5625 4.78125 C 60.730469 5.40625 61.867188 6.089844 62.96875 6.824219 C 64.070312 7.5625 65.132812 8.351562 66.15625 9.191406 C 67.179688 10.035156 68.160156 10.925781 69.097656 11.863281 C 70.03125 12.800781 70.921875 13.78125 71.761719 14.808594 C 72.601562 15.832031 73.390625 16.898438 74.125 18 C 74.863281 19.101562 75.542969 20.238281 76.167969 21.410156 C 76.789062 22.578125 77.355469 23.777344 77.863281 25 C 78.371094 26.226562 78.816406 27.472656 79.199219 28.742188 C 79.585938 30.011719 79.90625 31.296875 80.164062 32.597656 C 80.421875 33.898438 80.617188 35.210938 80.746094 36.53125 C 80.875 37.851562 80.941406 39.175781 80.941406 40.5 Z M 80.941406 40.5 " fill-opacity="1" fill-rule="nonzero"/><g clip-path="url(#fba2e4aa88)"><path stroke-linecap="round" transform="matrix(0.692027, 0, 0, 0.692027, 25.053525, 25.053522)" fill="none" stroke-linejoin="round" d="M 0.00168043 0.00168476 L 44.85971 44.859714 " stroke="#ffffff" stroke-width="2" stroke-opacity="1" stroke-miterlimit="4"/></g><g clip-path="url(#16de103ebf)"><path stroke-linecap="round" transform="matrix(0.71513, 0, 0, 0.727675, -31.700723, 7.57595)" fill="none" stroke-linejoin="round" d="M 112.924068 62.885196 C 112.366914 63.362959 111.782449 63.808513 111.176134 64.21649 C 110.56982 64.629836 109.941656 65.000237 109.286181 65.338428 C 108.636169 65.671252 107.964307 65.966499 107.28152 66.224169 C 106.593271 66.481839 105.894098 66.696564 105.178538 66.873712 C 104.46844 67.05086 103.747417 67.179695 103.020932 67.270953 C 102.294447 67.362211 101.5625 67.410524 100.830553 67.415892 C 100.098606 67.415892 99.366659 67.378316 98.640174 67.297794 C 97.908227 67.217272 97.187204 67.093805 96.471644 66.927393 C 95.761546 66.760981 95.05691 66.551624 94.368662 66.304691 C 93.680413 66.052389 93.003089 65.767878 92.347613 65.440423 C 91.692138 65.112967 91.058513 64.747935 90.446736 64.345325 C 89.834959 63.942716 89.245032 63.50253 88.682415 63.030135 C 88.125262 62.563108 87.589957 62.058505 87.087426 61.52706 C 86.584895 60.990248 86.115138 60.426595 85.678155 59.841469 C 85.241171 59.250976 84.842424 58.639009 84.476451 58.000203 C 84.115939 57.366764 83.788202 56.711853 83.4987 56.035469 L 83.269284 55.466448 C 81.679757 57.055413 78.282211 58.048516 76.692684 56.459551 C 76.310324 56.078414 76.01536 55.638228 75.807793 55.138992 C 75.605688 54.645125 75.501905 54.124417 75.501905 53.582236 C 75.501905 53.045424 75.605688 52.524716 75.807793 52.02548 C 76.01536 51.531613 76.310324 51.091427 76.692684 50.71029 C 77.042271 50.361362 77.441018 50.087587 77.883464 49.883599 C 78.331372 49.67961 78.801129 49.561511 79.292735 49.529303 C 79.784342 49.491726 80.265023 49.545407 80.73478 49.67961 C 81.21 49.819181 81.641521 50.033906 82.034806 50.323785 L 82.078504 50.323785 C 82.029344 49.786973 82.007495 49.244792 82.007495 48.697243 C 82.007495 46.458736 82.395317 44.290013 83.170963 42.191077 C 83.952071 40.09214 85.07184 38.191824 86.535735 36.500865 " stroke="#ffffff" stroke-width="2" stroke-opacity="1" stroke-miterlimit="4"/></g><g clip-path="url(#c77b8686fa)"><path stroke-linecap="round" transform="matrix(0.71513, 0, 0, 0.727675, -27.925555, 5.75094)" fill="none" stroke-linejoin="round" d="M 83.92234 36.448272 C 85.571952 35.176026 87.385433 34.204396 89.357321 33.528012 C 91.329208 32.851628 93.355718 32.513436 95.436852 32.497332 C 96.665867 32.497332 97.883959 32.620799 99.091125 32.856996 C 100.292829 33.098562 101.46176 33.452858 102.597917 33.925253 C 103.734073 34.39228 104.810145 34.972037 105.831594 35.653789 C 106.858504 36.335541 107.803481 37.113919 108.671985 37.978187 C 109.54049 38.847823 110.316135 39.792613 110.998922 40.817925 C 111.681708 41.837868 112.255249 42.916861 112.725006 44.049535 C 113.194763 45.187578 113.549812 46.357829 113.790153 47.560289 C 114.030494 48.768117 114.150664 49.981313 114.150664 51.210613 C 114.150664 51.758162 114.128815 52.300342 114.079655 52.837155 L 114.074192 52.976726 C 114.451091 52.64927 114.882612 52.402337 115.352369 52.241293 C 115.827588 52.074881 116.319194 52.005096 116.821725 52.026568 C 117.318794 52.048041 117.799476 52.160771 118.258308 52.370128 C 118.717141 52.574117 119.12135 52.858627 119.470937 53.218292 C 119.853297 53.599428 120.148261 54.039615 120.355828 54.533482 C 120.557933 55.032718 120.661717 55.553426 120.661717 56.090238 C 120.661717 56.632419 120.557933 57.153127 120.355828 57.646994 C 120.148261 58.14623 119.853297 58.586416 119.470937 58.967553 C 117.88141 60.556517 114.489327 59.54731 112.8998 57.958345 L 112.670383 58.532735 C 112.003984 60.019705 111.173715 61.404681 110.168654 62.682295 " stroke="#ffffff" stroke-width="2" stroke-opacity="1" stroke-miterlimit="4"/></g><g clip-path="url(#b76b6e4912)"><path stroke-linecap="round" transform="matrix(0.71513, 0, 0, 0.727675, -26.320087, 3.925932)" fill="none" stroke-linejoin="round" d="M 93.197312 35.005331 C 93.230086 34.60809 93.224624 34.205481 93.175463 33.802871 C 93.131765 33.400262 93.044368 33.008389 92.918735 32.627252 C 92.793103 32.240747 92.629234 31.875715 92.432591 31.526787 C 92.230486 31.17249 91.995608 30.845035 91.733418 30.54442 C 91.465766 30.238437 91.170802 29.964662 90.853989 29.717729 C 90.531714 29.476163 90.187589 29.266806 89.827078 29.089658 C 89.461104 28.91251 89.084206 28.778307 88.690921 28.676313 C 88.303098 28.579686 87.904351 28.520637 87.500141 28.499165 " stroke="#ffffff" stroke-width="2" stroke-opacity="1" stroke-miterlimit="4"/></g><path stroke-linecap="round" transform="matrix(0.71513, 0, 0, 0.727675, -24.750375, 4.377818)" fill="none" stroke-linejoin="round" d="M 95.066256 29.504707 C 95.066256 29.504707 91.002311 28.962526 91.002311 34.384332 " stroke="#ffffff" stroke-width="2" stroke-opacity="1" stroke-miterlimit="4"/><path stroke-linecap="butt" transform="matrix(0.71513, 0, 0, 0.727675, 34.508887, 39.464124)" fill-opacity="1" fill="#ffffff" fill-rule="nonzero" stroke-linejoin="miter" d="M 3.254024 1.627531 C 3.254024 1.842256 3.210326 2.051613 3.128391 2.250234 C 3.046457 2.448854 2.931749 2.626002 2.778804 2.77631 C 2.62586 2.931985 2.451067 3.050084 2.248962 3.130606 C 2.05232 3.211128 1.844753 3.254073 1.626261 3.254073 C 1.413231 3.254073 1.205664 3.211128 1.00356 3.130606 C 0.806917 3.050084 0.626661 2.931985 0.479179 2.77631 C 0.326235 2.626002 0.206065 2.448854 0.124131 2.250234 C 0.0421961 2.051613 -0.00150221 1.842256 -0.00150221 1.627531 C -0.00150221 1.412806 0.0421961 1.203449 0.124131 1.004829 C 0.206065 0.806208 0.326235 0.62906 0.479179 0.478753 C 0.626661 0.323077 0.806917 0.204978 1.00356 0.124456 C 1.205664 0.0439345 1.413231 0.000989485 1.626261 0.000989485 C 1.844753 0.000989485 2.05232 0.0439345 2.248962 0.124456 C 2.451067 0.204978 2.62586 0.323077 2.778804 0.478753 C 2.931749 0.62906 3.046457 0.806208 3.128391 1.004829 C 3.210326 1.203449 3.254024 1.412806 3.254024 1.627531 Z M 3.254024 1.627531 " stroke="#ffffff" stroke-width="2" stroke-opacity="1" stroke-miterlimit="4"/><path stroke-linecap="butt" transform="matrix(0.71513, 0, 0, 0.727675, 43.817019, 39.464124)" fill-opacity="1" fill="#ffffff" fill-rule="nonzero" stroke-linejoin="miter" d="M 3.25467 1.627531 C 3.25467 1.842256 3.210971 2.051613 3.129037 2.250234 C 3.047102 2.448854 2.932394 2.626002 2.77945 2.77631 C 2.626506 2.931985 2.44625 3.050084 2.249608 3.130606 C 2.052965 3.211128 1.845398 3.254073 1.626906 3.254073 C 1.413877 3.254073 1.20631 3.211128 1.004205 3.130606 C 0.807563 3.050084 0.627307 2.931985 0.474363 2.77631 C 0.321419 2.626002 0.206711 2.448854 0.124776 2.250234 C 0.0428418 2.051613 -0.000856572 1.842256 -0.000856572 1.627531 C -0.000856572 1.412806 0.0428418 1.203449 0.124776 1.004829 C 0.206711 0.806208 0.321419 0.62906 0.474363 0.478753 C 0.627307 0.323077 0.807563 0.204978 1.004205 0.124456 C 1.20631 0.0439345 1.413877 0.000989485 1.626906 0.000989485 C 1.845398 0.000989485 2.052965 0.0439345 2.249608 0.124456 C 2.44625 0.204978 2.626506 0.323077 2.77945 0.478753 C 2.932394 0.62906 3.047102 0.806208 3.129037 1.004829 C 3.210971 1.203449 3.25467 1.412806 3.25467 1.627531 Z M 3.25467 1.627531 " stroke="#ffffff" stroke-width="2" stroke-opacity="1" stroke-miterlimit="4"/><path stroke-linecap="round" transform="matrix(0.71513, 0, 0, 0.727675, -26.494579, 12.316025)" fill="none" stroke-linejoin="round" d="M 99.766647 46.891089 C 99.351513 47.304435 98.898142 47.674835 98.411998 48.002291 C 97.920392 48.329746 97.406937 48.603521 96.860707 48.828982 C 96.31994 49.054443 95.762787 49.220855 95.183784 49.338954 C 94.610243 49.451684 94.025778 49.510734 93.43585 49.510734 C 92.851385 49.510734 92.26692 49.451684 91.693379 49.338954 C 91.114376 49.220855 90.557222 49.054443 90.016455 48.828982 C 89.470226 48.603521 88.956771 48.329746 88.465164 48.002291 C 87.97902 47.674835 87.52565 47.304435 87.110516 46.891089 " stroke="#ffffff" stroke-width="2" stroke-opacity="1" stroke-miterlimit="4"/></svg>