<svg xmlns="http://www.w3.org/2000/svg" xmlns:xlink="http://www.w3.org/1999/xlink" width="108" zoomAndPan="magnify" viewBox="0 0 81 80.999996" height="108" preserveAspectRatio="xMidYMid meet" version="1.0"><defs><clipPath id="207ea0589d"><path d="M 32.402344 18.785156 L 48.902344 18.785156 L 48.902344 62.285156 L 32.402344 62.285156 Z M 32.402344 18.785156 " clip-rule="nonzero"/></clipPath><clipPath id="a9062725ba"><path d="M 44.808594 20 L 47 20 L 47 23 L 44.808594 23 Z M 44.808594 20 " clip-rule="nonzero"/></clipPath><clipPath id="9dc9768d7a"><path d="M 53 20 L 55.308594 20 L 55.308594 23 L 53 23 Z M 53 20 " clip-rule="nonzero"/></clipPath><clipPath id="6908705aeb"><path d="M 44.808594 18 L 47 18 L 47 21 L 44.808594 21 Z M 44.808594 18 " clip-rule="nonzero"/></clipPath><clipPath id="fdad79346b"><path d="M 52 16.671875 L 55 16.671875 L 55 19 L 52 19 Z M 52 16.671875 " clip-rule="nonzero"/></clipPath><clipPath id="ad24596724"><path d="M 44.808594 22 L 47 22 L 47 25 L 44.808594 25 Z M 44.808594 22 " clip-rule="nonzero"/></clipPath><clipPath id="b5c85f8d4d"><path d="M 52 25 L 55 25 L 55 26.421875 L 52 26.421875 Z M 52 25 " clip-rule="nonzero"/></clipPath></defs><rect x="-8.1" width="97.2" fill="#ffffff" y="-8.1" height="97.199995" fill-opacity="1"/><rect x="-8.1" width="97.2" fill="#ffffff" y="-8.1" height="97.199995" fill-opacity="1"/><path fill="#f38122" d="M 80.941406 40.5 C 80.941406 41.828125 80.875 43.148438 80.746094 44.46875 C 80.617188 45.789062 80.421875 47.101562 80.164062 48.402344 C 79.90625 49.703125 79.585938 50.988281 79.199219 52.257812 C 78.816406 53.527344 78.371094 54.773438 77.863281 56 C 77.355469 57.222656 76.789062 58.421875 76.167969 59.59375 C 75.542969 60.761719 74.863281 61.898438 74.125 63 C 73.390625 64.105469 72.601562 65.167969 71.761719 66.191406 C 70.921875 67.21875 70.03125 68.199219 69.097656 69.136719 C 68.160156 70.078125 67.179688 70.964844 66.15625 71.808594 C 65.132812 72.648438 64.070312 73.4375 62.96875 74.175781 C 61.867188 74.910156 60.730469 75.59375 59.5625 76.21875 C 58.394531 76.84375 57.199219 77.410156 55.976562 77.917969 C 54.753906 78.425781 53.507812 78.871094 52.238281 79.257812 C 50.972656 79.640625 49.6875 79.964844 48.390625 80.222656 C 47.089844 80.480469 45.78125 80.675781 44.464844 80.804688 C 43.144531 80.933594 41.824219 81 40.5 81 C 39.175781 81 37.855469 80.933594 36.535156 80.804688 C 35.21875 80.675781 33.910156 80.480469 32.609375 80.222656 C 31.3125 79.964844 30.027344 79.640625 28.761719 79.257812 C 27.492188 78.871094 26.246094 78.425781 25.023438 77.917969 C 23.800781 77.410156 22.605469 76.84375 21.4375 76.21875 C 20.269531 75.59375 19.132812 74.910156 18.03125 74.175781 C 16.929688 73.4375 15.867188 72.648438 14.84375 71.808594 C 13.820312 70.964844 12.839844 70.078125 11.902344 69.136719 C 10.96875 68.199219 10.078125 67.21875 9.238281 66.195312 C 8.398438 65.167969 7.609375 64.105469 6.875 63 C 6.136719 61.898438 5.457031 60.761719 4.832031 59.59375 C 4.210938 58.421875 3.644531 57.222656 3.136719 56 C 2.628906 54.773438 2.183594 53.527344 1.800781 52.257812 C 1.414062 50.988281 1.09375 49.703125 0.835938 48.402344 C 0.578125 47.101562 0.382812 45.789062 0.253906 44.46875 C 0.125 43.148438 0.0585938 41.828125 0.0585938 40.5 C 0.0585938 39.175781 0.125 37.851562 0.253906 36.53125 C 0.382812 35.210938 0.578125 33.898438 0.835938 32.597656 C 1.09375 31.296875 1.414062 30.011719 1.800781 28.742188 C 2.183594 27.472656 2.628906 26.226562 3.136719 25 C 3.644531 23.777344 4.210938 22.578125 4.832031 21.410156 C 5.457031 20.238281 6.136719 19.101562 6.875 18 C 7.609375 16.898438 8.398438 15.832031 9.238281 14.808594 C 10.078125 13.78125 10.96875 12.800781 11.902344 11.863281 C 12.839844 10.925781 13.820312 10.035156 14.84375 9.191406 C 15.867188 8.351562 16.929688 7.5625 18.03125 6.824219 C 19.132812 6.089844 20.269531 5.40625 21.4375 4.78125 C 22.605469 4.15625 23.800781 3.589844 25.023438 3.082031 C 26.246094 2.574219 27.492188 2.128906 28.761719 1.742188 C 30.027344 1.359375 31.3125 1.035156 32.609375 0.777344 C 33.910156 0.519531 35.21875 0.324219 36.535156 0.195312 C 37.855469 0.0664062 39.175781 0 40.5 0 C 41.824219 0 43.144531 0.0664062 44.464844 0.195312 C 45.78125 0.324219 47.089844 0.519531 48.390625 0.777344 C 49.6875 1.035156 50.972656 1.359375 52.238281 1.742188 C 53.507812 2.128906 54.753906 2.574219 55.976562 3.082031 C 57.199219 3.589844 58.394531 4.15625 59.5625 4.78125 C 60.730469 5.40625 61.867188 6.089844 62.96875 6.824219 C 64.070312 7.5625 65.132812 8.351562 66.15625 9.191406 C 67.179688 10.035156 68.160156 10.925781 69.097656 11.863281 C 70.03125 12.800781 70.921875 13.78125 71.761719 14.808594 C 72.601562 15.832031 73.390625 16.898438 74.125 18 C 74.863281 19.101562 75.542969 20.238281 76.167969 21.410156 C 76.789062 22.578125 77.355469 23.777344 77.863281 25 C 78.371094 26.226562 78.816406 27.472656 79.199219 28.742188 C 79.585938 30.011719 79.90625 31.296875 80.164062 32.597656 C 80.421875 33.898438 80.617188 35.210938 80.746094 36.53125 C 80.875 37.851562 80.941406 39.175781 80.941406 40.5 Z M 80.941406 40.5 " fill-opacity="1" fill-rule="nonzero"/><g clip-path="url(#207ea0589d)"><path fill="#ffffff" d="M 34.070312 29.765625 L 35.136719 29.765625 L 35.136719 27.742188 C 35.136719 27.589844 35.164062 27.445312 35.222656 27.308594 C 35.28125 27.167969 35.363281 27.046875 35.472656 26.941406 C 35.582031 26.832031 35.707031 26.75 35.847656 26.695312 C 35.988281 26.636719 36.136719 26.609375 36.289062 26.609375 L 37.332031 26.609375 L 37.332031 19.585938 C 37.332031 19.382812 37.402344 19.214844 37.546875 19.070312 C 37.691406 18.929688 37.867188 18.859375 38.070312 18.859375 L 43.234375 18.859375 C 43.441406 18.859375 43.613281 18.929688 43.757812 19.070312 C 43.902344 19.214844 43.976562 19.382812 43.976562 19.585938 L 43.976562 20.339844 C 43.824219 20.339844 43.679688 20.367188 43.542969 20.425781 C 43.402344 20.480469 43.28125 20.5625 43.175781 20.664062 C 43.070312 20.769531 42.988281 20.890625 42.929688 21.027344 C 42.875 21.160156 42.84375 21.304688 42.84375 21.449219 C 42.84375 21.597656 42.875 21.738281 42.929688 21.875 C 42.988281 22.011719 43.070312 22.132812 43.175781 22.234375 C 43.28125 22.339844 43.402344 22.421875 43.542969 22.476562 C 43.679688 22.535156 43.824219 22.5625 43.976562 22.5625 L 43.976562 26.609375 L 45.015625 26.609375 C 45.171875 26.609375 45.316406 26.636719 45.457031 26.695312 C 45.601562 26.75 45.722656 26.832031 45.832031 26.941406 C 45.941406 27.046875 46.023438 27.167969 46.082031 27.308594 C 46.140625 27.445312 46.167969 27.589844 46.171875 27.742188 L 46.171875 29.765625 L 47.234375 29.765625 C 47.457031 29.765625 47.671875 29.808594 47.875 29.890625 C 48.078125 29.972656 48.261719 30.09375 48.417969 30.246094 C 48.574219 30.402344 48.695312 30.578125 48.777344 30.777344 C 48.863281 30.980469 48.90625 31.1875 48.90625 31.40625 L 48.90625 60.566406 C 48.90625 60.785156 48.863281 60.996094 48.777344 61.195312 C 48.695312 61.398438 48.574219 61.574219 48.417969 61.730469 C 48.261719 61.882812 48.078125 62 47.875 62.085938 C 47.671875 62.167969 47.457031 62.210938 47.234375 62.210938 L 34.070312 62.210938 C 33.851562 62.210938 33.636719 62.167969 33.433594 62.085938 C 33.226562 62 33.046875 61.882812 32.890625 61.730469 C 32.734375 61.574219 32.613281 61.398438 32.527344 61.195312 C 32.445312 60.996094 32.402344 60.785156 32.402344 60.566406 L 32.402344 31.410156 C 32.402344 31.191406 32.445312 30.984375 32.527344 30.78125 C 32.613281 30.582031 32.734375 30.402344 32.890625 30.246094 C 33.046875 30.09375 33.226562 29.976562 33.433594 29.890625 C 33.636719 29.808594 33.851562 29.765625 34.070312 29.765625 Z M 42.617188 23.496094 C 42.347656 23.324219 42.121094 23.109375 41.9375 22.847656 C 41.75 22.589844 41.625 22.304688 41.550781 21.996094 C 41.480469 21.6875 41.46875 21.378906 41.519531 21.066406 C 41.570312 20.753906 41.675781 20.460938 41.84375 20.191406 L 38.6875 20.191406 L 38.6875 26.605469 L 42.617188 26.605469 Z M 44.8125 27.941406 L 36.492188 27.941406 L 36.492188 29.765625 L 44.8125 29.765625 Z M 33.757812 60.566406 C 33.757812 60.652344 33.789062 60.726562 33.851562 60.785156 C 33.910156 60.84375 33.984375 60.875 34.070312 60.875 L 47.234375 60.875 C 47.324219 60.875 47.398438 60.84375 47.457031 60.785156 C 47.519531 60.726562 47.550781 60.652344 47.550781 60.566406 L 47.550781 31.410156 C 47.550781 31.324219 47.519531 31.253906 47.457031 31.191406 C 47.398438 31.132812 47.324219 31.101562 47.234375 31.101562 L 34.070312 31.101562 C 33.984375 31.101562 33.910156 31.132812 33.851562 31.191406 C 33.789062 31.253906 33.757812 31.324219 33.757812 31.410156 Z M 33.757812 60.566406 " fill-opacity="1" fill-rule="nonzero"/></g><g clip-path="url(#a9062725ba)"><path fill="#ffffff" d="M 46.320312 22.070312 L 45.523438 22.070312 C 45.359375 22.070312 45.21875 22.011719 45.101562 21.894531 C 44.984375 21.777344 44.925781 21.636719 44.925781 21.472656 C 44.925781 21.308594 44.984375 21.167969 45.101562 21.050781 C 45.21875 20.9375 45.359375 20.878906 45.523438 20.878906 L 46.320312 20.878906 C 46.488281 20.878906 46.628906 20.9375 46.746094 21.050781 C 46.863281 21.167969 46.921875 21.308594 46.921875 21.472656 C 46.921875 21.636719 46.863281 21.777344 46.746094 21.894531 C 46.628906 22.011719 46.488281 22.070312 46.320312 22.070312 Z M 46.320312 22.070312 " fill-opacity="1" fill-rule="nonzero"/></g><path fill="#ffffff" d="M 49.078125 22.070312 L 48.28125 22.070312 C 48.117188 22.070312 47.976562 22.011719 47.859375 21.894531 C 47.742188 21.777344 47.683594 21.636719 47.683594 21.472656 C 47.683594 21.308594 47.742188 21.167969 47.859375 21.050781 C 47.976562 20.9375 48.117188 20.878906 48.28125 20.878906 L 49.078125 20.878906 C 49.246094 20.878906 49.386719 20.9375 49.503906 21.050781 C 49.621094 21.167969 49.675781 21.308594 49.675781 21.472656 C 49.675781 21.636719 49.621094 21.777344 49.503906 21.894531 C 49.386719 22.011719 49.246094 22.070312 49.078125 22.070312 Z M 49.078125 22.070312 " fill-opacity="1" fill-rule="nonzero"/><path fill="#ffffff" d="M 51.039062 22.070312 C 50.875 22.070312 50.734375 22.011719 50.617188 21.894531 C 50.5 21.777344 50.441406 21.636719 50.441406 21.472656 C 50.441406 21.308594 50.5 21.167969 50.617188 21.050781 C 50.734375 20.9375 50.875 20.878906 51.039062 20.878906 L 51.839844 20.878906 C 52.003906 20.878906 52.144531 20.9375 52.261719 21.050781 C 52.378906 21.167969 52.4375 21.308594 52.4375 21.472656 C 52.4375 21.636719 52.378906 21.777344 52.261719 21.894531 C 52.144531 22.011719 52.003906 22.070312 51.839844 22.070312 Z M 51.039062 22.070312 " fill-opacity="1" fill-rule="nonzero"/><g clip-path="url(#9dc9768d7a)"><path fill="#ffffff" d="M 53.796875 22.070312 C 53.632812 22.070312 53.492188 22.011719 53.375 21.894531 C 53.257812 21.777344 53.199219 21.636719 53.199219 21.472656 C 53.199219 21.308594 53.257812 21.167969 53.375 21.050781 C 53.492188 20.9375 53.632812 20.878906 53.796875 20.878906 L 54.59375 20.878906 C 54.761719 20.878906 54.902344 20.9375 55.019531 21.050781 C 55.136719 21.167969 55.195312 21.308594 55.195312 21.472656 C 55.195312 21.636719 55.136719 21.777344 55.019531 21.894531 C 54.902344 22.011719 54.761719 22.070312 54.59375 22.070312 Z M 53.796875 22.070312 " fill-opacity="1" fill-rule="nonzero"/></g><g clip-path="url(#6908705aeb)"><path fill="#ffffff" d="M 46.449219 19.933594 L 45.675781 20.136719 C 45.515625 20.175781 45.367188 20.15625 45.222656 20.074219 C 45.082031 19.992188 44.988281 19.871094 44.945312 19.710938 C 44.90625 19.550781 44.925781 19.402344 45.007812 19.257812 C 45.09375 19.117188 45.214844 19.027344 45.375 18.984375 L 46.144531 18.78125 C 46.304688 18.742188 46.453125 18.765625 46.59375 18.851562 C 46.730469 18.933594 46.824219 19.054688 46.863281 19.210938 C 46.90625 19.367188 46.886719 19.515625 46.804688 19.65625 C 46.722656 19.796875 46.605469 19.890625 46.449219 19.933594 Z M 46.449219 19.933594 " fill-opacity="1" fill-rule="nonzero"/></g><path fill="#ffffff" d="M 49.113281 19.234375 L 48.34375 19.4375 C 48.183594 19.480469 48.03125 19.460938 47.890625 19.375 C 47.746094 19.292969 47.652344 19.171875 47.613281 19.011719 C 47.570312 18.855469 47.589844 18.703125 47.675781 18.5625 C 47.757812 18.417969 47.878906 18.328125 48.039062 18.285156 L 48.8125 18.082031 C 48.96875 18.050781 49.113281 18.074219 49.253906 18.15625 C 49.390625 18.238281 49.476562 18.359375 49.519531 18.515625 C 49.558594 18.667969 49.539062 18.816406 49.460938 18.957031 C 49.382812 19.09375 49.269531 19.1875 49.113281 19.234375 Z M 49.113281 19.234375 " fill-opacity="1" fill-rule="nonzero"/><path fill="#ffffff" d="M 50.707031 17.589844 L 51.480469 17.386719 C 51.640625 17.339844 51.796875 17.355469 51.945312 17.4375 C 52.09375 17.519531 52.1875 17.644531 52.234375 17.808594 C 52.277344 17.96875 52.253906 18.125 52.164062 18.269531 C 52.074219 18.414062 51.949219 18.503906 51.78125 18.539062 L 51.011719 18.742188 C 50.847656 18.792969 50.691406 18.773438 50.542969 18.691406 C 50.394531 18.609375 50.300781 18.488281 50.257812 18.324219 C 50.214844 18.160156 50.238281 18.003906 50.324219 17.863281 C 50.414062 17.71875 50.542969 17.625 50.707031 17.589844 Z M 50.707031 17.589844 " fill-opacity="1" fill-rule="nonzero"/><g clip-path="url(#fdad79346b)"><path fill="#ffffff" d="M 53.375 16.894531 L 54.144531 16.691406 C 54.308594 16.640625 54.464844 16.660156 54.613281 16.742188 C 54.761719 16.824219 54.855469 16.945312 54.898438 17.109375 C 54.941406 17.273438 54.917969 17.425781 54.832031 17.570312 C 54.742188 17.714844 54.613281 17.804688 54.449219 17.84375 L 53.675781 18.042969 C 53.515625 18.09375 53.359375 18.078125 53.210938 17.996094 C 53.0625 17.914062 52.96875 17.789062 52.921875 17.625 C 52.878906 17.460938 52.902344 17.308594 52.992188 17.164062 C 53.082031 17.019531 53.207031 16.929688 53.375 16.894531 Z M 53.375 16.894531 " fill-opacity="1" fill-rule="nonzero"/></g><g clip-path="url(#ad24596724)"><path fill="#ffffff" d="M 45.675781 22.957031 L 46.449219 23.160156 C 46.609375 23.203125 46.730469 23.292969 46.816406 23.4375 C 46.898438 23.578125 46.921875 23.730469 46.878906 23.886719 C 46.835938 24.046875 46.742188 24.167969 46.601562 24.253906 C 46.457031 24.335938 46.304688 24.355469 46.144531 24.3125 L 45.375 24.109375 C 45.214844 24.070312 45.09375 23.976562 45.007812 23.835938 C 44.925781 23.691406 44.90625 23.542969 44.945312 23.382812 C 44.988281 23.222656 45.082031 23.101562 45.222656 23.019531 C 45.367188 22.9375 45.515625 22.917969 45.675781 22.957031 Z M 45.675781 22.957031 " fill-opacity="1" fill-rule="nonzero"/></g><path fill="#ffffff" d="M 47.613281 24.082031 C 47.65625 23.921875 47.746094 23.800781 47.890625 23.71875 C 48.03125 23.636719 48.183594 23.613281 48.34375 23.65625 L 49.117188 23.859375 C 49.273438 23.898438 49.398438 23.992188 49.480469 24.132812 C 49.5625 24.273438 49.585938 24.425781 49.542969 24.585938 C 49.5 24.742188 49.40625 24.863281 49.265625 24.949219 C 49.121094 25.03125 48.972656 25.050781 48.8125 25.007812 L 48.039062 24.808594 C 47.878906 24.765625 47.757812 24.675781 47.675781 24.53125 C 47.589844 24.390625 47.570312 24.238281 47.613281 24.082031 Z M 47.613281 24.082031 " fill-opacity="1" fill-rule="nonzero"/><path fill="#ffffff" d="M 51.015625 24.351562 L 51.785156 24.554688 C 51.941406 24.597656 52.0625 24.691406 52.140625 24.832031 C 52.222656 24.972656 52.242188 25.121094 52.199219 25.277344 C 52.160156 25.433594 52.070312 25.554688 51.929688 25.636719 C 51.789062 25.722656 51.640625 25.742188 51.480469 25.707031 L 50.710938 25.503906 C 50.542969 25.46875 50.417969 25.375 50.328125 25.234375 C 50.238281 25.089844 50.21875 24.933594 50.261719 24.769531 C 50.304688 24.609375 50.398438 24.484375 50.546875 24.402344 C 50.695312 24.320312 50.851562 24.304688 51.015625 24.351562 Z M 51.015625 24.351562 " fill-opacity="1" fill-rule="nonzero"/><g clip-path="url(#b5c85f8d4d)"><path fill="#ffffff" d="M 53.675781 25.050781 L 54.449219 25.25 C 54.613281 25.289062 54.742188 25.378906 54.832031 25.523438 C 54.917969 25.667969 54.941406 25.820312 54.898438 25.984375 C 54.855469 26.148438 54.761719 26.269531 54.613281 26.351562 C 54.464844 26.4375 54.308594 26.453125 54.144531 26.402344 L 53.375 26.199219 C 53.214844 26.160156 53.09375 26.066406 53.007812 25.925781 C 52.925781 25.785156 52.90625 25.632812 52.945312 25.472656 C 52.988281 25.316406 53.082031 25.195312 53.222656 25.109375 C 53.367188 25.027344 53.519531 25.007812 53.675781 25.050781 Z M 53.675781 25.050781 " fill-opacity="1" fill-rule="nonzero"/></g></svg>