<svg xmlns="http://www.w3.org/2000/svg" xmlns:xlink="http://www.w3.org/1999/xlink" width="108" zoomAndPan="magnify" viewBox="0 0 81 80.999996" height="108" preserveAspectRatio="xMidYMid meet" version="1.0"><defs><clipPath id="3080404039"><path d="M 21.285156 19 L 26 19 L 26 22 L 21.285156 22 Z M 21.285156 19 " clip-rule="nonzero"/></clipPath><clipPath id="e81d87a96b"><path d="M 28 28 L 32 28 L 32 32.730469 L 28 32.730469 Z M 28 28 " clip-rule="nonzero"/></clipPath></defs><path fill="#f38122" d="M 80.941406 40.5 C 80.941406 41.828125 80.875 43.148438 80.746094 44.46875 C 80.617188 45.789062 80.421875 47.101562 80.164062 48.402344 C 79.90625 49.703125 79.585938 50.988281 79.199219 52.257812 C 78.816406 53.527344 78.371094 54.773438 77.863281 56 C 77.355469 57.222656 76.789062 58.421875 76.167969 59.59375 C 75.542969 60.761719 74.863281 61.898438 74.125 63 C 73.390625 64.105469 72.601562 65.167969 71.761719 66.191406 C 70.921875 67.21875 70.03125 68.199219 69.097656 69.136719 C 68.160156 70.078125 67.179688 70.964844 66.15625 71.808594 C 65.132812 72.648438 64.070312 73.4375 62.96875 74.175781 C 61.867188 74.910156 60.730469 75.59375 59.5625 76.21875 C 58.394531 76.84375 57.199219 77.410156 55.976562 77.917969 C 54.753906 78.425781 53.507812 78.871094 52.238281 79.257812 C 50.972656 79.640625 49.6875 79.964844 48.390625 80.222656 C 47.089844 80.480469 45.78125 80.675781 44.464844 80.804688 C 43.144531 80.933594 41.824219 81 40.5 81 C 39.175781 81 37.855469 80.933594 36.535156 80.804688 C 35.21875 80.675781 33.910156 80.480469 32.609375 80.222656 C 31.3125 79.964844 30.027344 79.640625 28.761719 79.257812 C 27.492188 78.871094 26.246094 78.425781 25.023438 77.917969 C 23.800781 77.410156 22.605469 76.84375 21.4375 76.21875 C 20.269531 75.59375 19.132812 74.910156 18.03125 74.175781 C 16.929688 73.4375 15.867188 72.648438 14.84375 71.808594 C 13.820312 70.964844 12.839844 70.078125 11.902344 69.136719 C 10.96875 68.199219 10.078125 67.21875 9.238281 66.195312 C 8.398438 65.167969 7.609375 64.105469 6.875 63 C 6.136719 61.898438 5.457031 60.761719 4.832031 59.59375 C 4.210938 58.421875 3.644531 57.222656 3.136719 56 C 2.628906 54.773438 2.183594 53.527344 1.800781 52.257812 C 1.414062 50.988281 1.09375 49.703125 0.835938 48.402344 C 0.578125 47.101562 0.382812 45.789062 0.253906 44.46875 C 0.125 43.148438 0.0585938 41.828125 0.0585938 40.5 C 0.0585938 39.175781 0.125 37.851562 0.253906 36.53125 C 0.382812 35.210938 0.578125 33.898438 0.835938 32.597656 C 1.09375 31.296875 1.414062 30.011719 1.800781 28.742188 C 2.183594 27.472656 2.628906 26.226562 3.136719 25 C 3.644531 23.777344 4.210938 22.578125 4.832031 21.410156 C 5.457031 20.238281 6.136719 19.101562 6.875 18 C 7.609375 16.898438 8.398438 15.832031 9.238281 14.808594 C 10.078125 13.78125 10.96875 12.800781 11.902344 11.863281 C 12.839844 10.925781 13.820312 10.035156 14.84375 9.191406 C 15.867188 8.351562 16.929688 7.5625 18.03125 6.824219 C 19.132812 6.089844 20.269531 5.40625 21.4375 4.78125 C 22.605469 4.15625 23.800781 3.589844 25.023438 3.082031 C 26.246094 2.574219 27.492188 2.128906 28.761719 1.742188 C 30.027344 1.359375 31.3125 1.035156 32.609375 0.777344 C 33.910156 0.519531 35.21875 0.324219 36.535156 0.195312 C 37.855469 0.0664062 39.175781 0 40.5 0 C 41.824219 0 43.144531 0.0664062 44.464844 0.195312 C 45.78125 0.324219 47.089844 0.519531 48.390625 0.777344 C 49.6875 1.035156 50.972656 1.359375 52.238281 1.742188 C 53.507812 2.128906 54.753906 2.574219 55.976562 3.082031 C 57.199219 3.589844 58.394531 4.15625 59.5625 4.78125 C 60.730469 5.40625 61.867188 6.089844 62.96875 6.824219 C 64.070312 7.5625 65.132812 8.351562 66.15625 9.191406 C 67.179688 10.035156 68.160156 10.925781 69.097656 11.863281 C 70.03125 12.800781 70.921875 13.78125 71.761719 14.808594 C 72.601562 15.832031 73.390625 16.898438 74.125 18 C 74.863281 19.101562 75.542969 20.238281 76.167969 21.410156 C 76.789062 22.578125 77.355469 23.777344 77.863281 25 C 78.371094 26.226562 78.816406 27.472656 79.199219 28.742188 C 79.585938 30.011719 79.90625 31.296875 80.164062 32.597656 C 80.421875 33.898438 80.617188 35.210938 80.746094 36.53125 C 80.875 37.851562 80.941406 39.175781 80.941406 40.5 Z M 80.941406 40.5 " fill-opacity="1" fill-rule="nonzero"/><path fill="#ffffff" d="M 63.855469 44.242188 C 63.089844 42.9375 62.175781 41.746094 61.109375 40.671875 C 60.039062 39.601562 58.855469 38.675781 57.554688 37.902344 C 56.253906 37.132812 54.878906 36.535156 53.425781 36.109375 C 51.976562 35.6875 50.492188 35.453125 48.980469 35.40625 L 48.984375 34.472656 C 48.984375 34.308594 48.925781 34.171875 48.808594 34.054688 C 48.695312 33.9375 48.554688 33.878906 48.390625 33.878906 C 48.230469 33.878906 48.089844 33.9375 47.972656 34.054688 C 47.859375 34.167969 47.800781 34.308594 47.800781 34.472656 L 47.800781 35.398438 C 46.292969 35.421875 44.816406 35.636719 43.367188 36.039062 C 41.917969 36.445312 40.539062 37.023438 39.238281 37.78125 C 37.9375 38.535156 36.75 39.445312 35.679688 40.503906 C 34.609375 41.566406 33.691406 42.742188 32.921875 44.039062 C 32.8125 44.234375 32.753906 44.445312 32.753906 44.671875 L 32.753906 46.65625 C 32.753906 46.835938 32.820312 46.992188 32.945312 47.121094 C 33.074219 47.25 33.226562 47.3125 33.40625 47.316406 L 39.714844 47.359375 C 39.863281 47.359375 39.992188 47.3125 40.109375 47.226562 C 40.226562 47.140625 40.308594 47.023438 40.347656 46.886719 L 40.597656 46.03125 L 41.1875 47.042969 C 41.3125 47.257812 41.5 47.367188 41.75 47.371094 L 47.792969 47.410156 L 47.78125 67.550781 C 47.78125 67.714844 47.839844 67.855469 47.953125 67.96875 C 48.070312 68.085938 48.210938 68.144531 48.375 68.144531 C 48.425781 68.144531 48.476562 68.136719 48.527344 68.121094 C 48.65625 68.089844 48.761719 68.015625 48.84375 67.910156 C 48.925781 67.804688 48.964844 67.683594 48.964844 67.550781 L 48.976562 47.417969 L 55.011719 47.457031 C 55.269531 47.460938 55.460938 47.355469 55.589844 47.132812 L 56.175781 46.132812 L 56.429688 46.996094 C 56.46875 47.136719 56.546875 47.253906 56.664062 47.339844 C 56.777344 47.429688 56.910156 47.472656 57.054688 47.472656 L 63.359375 47.515625 C 63.417969 47.515625 63.476562 47.507812 63.535156 47.492188 C 63.644531 47.460938 63.746094 47.40625 63.828125 47.324219 L 64.019531 47.105469 L 64.023438 44.875 C 64.023438 44.648438 63.96875 44.4375 63.855469 44.242188 Z M 62.359375 44.09375 L 56.925781 44.058594 C 56.859375 42.792969 56.554688 41.585938 56.007812 40.445312 C 55.460938 39.300781 54.714844 38.308594 53.769531 37.464844 C 55.53125 38.054688 57.152344 38.917969 58.625 40.054688 C 60.097656 41.1875 61.34375 42.535156 62.359375 44.09375 Z M 39.855469 43.945312 L 34.402344 43.90625 C 35.425781 42.359375 36.675781 41.027344 38.15625 39.90625 C 39.636719 38.789062 41.257812 37.949219 43.027344 37.386719 C 42.867188 37.523438 42.710938 37.660156 42.5625 37.808594 C 41.753906 38.628906 41.113281 39.570312 40.648438 40.628906 C 40.183594 41.683594 39.917969 42.789062 39.855469 43.945312 Z M 43.394531 38.648438 C 44.054688 37.980469 44.816406 37.464844 45.683594 37.105469 C 46.550781 36.742188 47.449219 36.5625 48.390625 36.566406 C 52.277344 36.589844 55.464844 39.898438 55.742188 44.050781 L 41.039062 43.953125 C 41.097656 42.957031 41.332031 42 41.738281 41.085938 C 42.140625 40.171875 42.695312 39.359375 43.394531 38.648438 Z M 39.324219 46.171875 L 33.941406 46.136719 L 33.945312 45.085938 L 39.628906 45.125 Z M 54.722656 46.277344 L 48.394531 46.230469 L 48.386719 46.230469 L 48.378906 46.234375 L 42.058594 46.191406 L 41.449219 45.140625 L 55.335938 45.234375 Z M 62.839844 46.332031 L 57.457031 46.292969 L 57.152344 45.242188 L 62.839844 45.28125 Z M 62.839844 46.332031 " fill-opacity="1" fill-rule="nonzero"/><path fill="#ffffff" d="M 35.1875 19.808594 C 35.339844 20.03125 35.464844 20.265625 35.570312 20.511719 C 35.671875 20.761719 35.75 21.015625 35.804688 21.277344 C 35.855469 21.539062 35.882812 21.804688 35.886719 22.070312 C 35.886719 22.339844 35.863281 22.605469 35.8125 22.867188 C 35.761719 23.128906 35.683594 23.382812 35.582031 23.632812 C 35.480469 23.878906 35.355469 24.113281 35.210938 24.335938 C 35.0625 24.558594 34.894531 24.765625 34.703125 24.957031 C 34.515625 25.148438 34.3125 25.316406 34.089844 25.464844 C 33.867188 25.617188 33.632812 25.742188 33.386719 25.847656 C 33.140625 25.949219 32.886719 26.027344 32.625 26.082031 C 32.363281 26.132812 32.097656 26.160156 31.828125 26.164062 C 31.5625 26.164062 31.296875 26.140625 31.035156 26.089844 C 30.773438 26.035156 30.515625 25.960938 30.269531 25.859375 C 30.019531 25.757812 29.785156 25.632812 29.5625 25.484375 C 29.339844 25.339844 29.132812 25.171875 28.941406 24.980469 C 28.753906 24.792969 28.582031 24.589844 28.433594 24.367188 C 28.285156 24.144531 28.15625 23.910156 28.054688 23.664062 C 27.949219 23.417969 27.871094 23.164062 27.820312 22.902344 C 27.765625 22.640625 27.738281 22.375 27.738281 22.105469 C 27.734375 21.839844 27.761719 21.574219 27.8125 21.3125 C 27.863281 21.046875 27.9375 20.792969 28.039062 20.546875 C 28.140625 20.296875 28.265625 20.0625 28.414062 19.839844 C 28.5625 19.617188 28.730469 19.410156 28.917969 19.21875 C 29.105469 19.03125 29.3125 18.859375 29.535156 18.710938 C 29.753906 18.5625 29.988281 18.433594 30.234375 18.332031 C 30.484375 18.226562 30.738281 18.148438 31 18.097656 C 31.261719 18.042969 31.527344 18.015625 31.792969 18.015625 C 32.0625 18.011719 32.328125 18.039062 32.589844 18.089844 C 32.851562 18.140625 33.105469 18.214844 33.355469 18.316406 C 33.601562 18.417969 33.835938 18.542969 34.058594 18.691406 C 34.285156 18.839844 34.488281 19.007812 34.679688 19.195312 C 34.871094 19.382812 35.039062 19.589844 35.1875 19.808594 Z M 35.1875 19.808594 " fill-opacity="1" fill-rule="nonzero"/><path fill="#ffffff" d="M 28.339844 17.121094 C 28.453125 17.046875 28.546875 16.953125 28.621094 16.835938 C 28.695312 16.722656 28.746094 16.601562 28.773438 16.464844 C 28.796875 16.332031 28.796875 16.199219 28.769531 16.066406 C 28.742188 15.933594 28.691406 15.808594 28.617188 15.695312 L 27.46875 13.992188 C 27.390625 13.878906 27.296875 13.785156 27.183594 13.710938 C 27.070312 13.636719 26.945312 13.585938 26.8125 13.558594 C 26.679688 13.535156 26.542969 13.535156 26.410156 13.5625 C 26.277344 13.589844 26.152344 13.640625 26.042969 13.714844 C 25.929688 13.792969 25.835938 13.886719 25.757812 14 C 25.683594 14.113281 25.632812 14.238281 25.605469 14.371094 C 25.582031 14.503906 25.582031 14.640625 25.609375 14.773438 C 25.636719 14.90625 25.6875 15.03125 25.765625 15.140625 L 26.914062 16.84375 C 26.988281 16.957031 27.082031 17.050781 27.195312 17.128906 C 27.3125 17.203125 27.433594 17.253906 27.566406 17.277344 C 27.703125 17.304688 27.835938 17.304688 27.96875 17.277344 C 28.101562 17.25 28.226562 17.199219 28.339844 17.121094 Z M 28.339844 17.121094 " fill-opacity="1" fill-rule="nonzero"/><g clip-path="url(#3080404039)"><path fill="#ffffff" d="M 24.53125 21.867188 C 24.808594 21.921875 25.066406 21.871094 25.300781 21.710938 C 25.535156 21.554688 25.679688 21.332031 25.734375 21.054688 C 25.761719 20.921875 25.757812 20.785156 25.734375 20.652344 C 25.707031 20.519531 25.652344 20.398438 25.578125 20.285156 C 25.5 20.171875 25.40625 20.078125 25.292969 20.003906 C 25.179688 19.925781 25.054688 19.875 24.921875 19.851562 L 22.90625 19.457031 C 22.773438 19.433594 22.640625 19.433594 22.503906 19.460938 C 22.371094 19.488281 22.25 19.539062 22.136719 19.617188 C 22.023438 19.691406 21.929688 19.785156 21.855469 19.898438 C 21.777344 20.011719 21.726562 20.136719 21.703125 20.269531 C 21.675781 20.402344 21.675781 20.539062 21.703125 20.671875 C 21.730469 20.804688 21.78125 20.929688 21.859375 21.042969 C 21.933594 21.152344 22.027344 21.25 22.144531 21.324219 C 22.257812 21.398438 22.378906 21.449219 22.515625 21.472656 Z M 24.53125 21.867188 " fill-opacity="1" fill-rule="nonzero"/></g><path fill="#ffffff" d="M 24.695312 28.25 L 26.398438 27.101562 C 26.511719 27.027344 26.605469 26.933594 26.679688 26.816406 C 26.753906 26.703125 26.804688 26.582031 26.832031 26.449219 C 26.855469 26.3125 26.855469 26.179688 26.828125 26.046875 C 26.800781 25.914062 26.75 25.789062 26.675781 25.675781 C 26.597656 25.5625 26.503906 25.46875 26.390625 25.394531 C 26.277344 25.320312 26.152344 25.269531 26.019531 25.242188 C 25.886719 25.21875 25.75 25.21875 25.617188 25.246094 C 25.484375 25.273438 25.363281 25.324219 25.25 25.398438 L 23.546875 26.546875 C 23.433594 26.625 23.339844 26.71875 23.265625 26.832031 C 23.1875 26.945312 23.136719 27.070312 23.113281 27.203125 C 23.085938 27.339844 23.085938 27.472656 23.113281 27.605469 C 23.140625 27.738281 23.191406 27.863281 23.269531 27.976562 C 23.34375 28.085938 23.441406 28.183594 23.554688 28.257812 C 23.667969 28.332031 23.789062 28.382812 23.925781 28.410156 C 24.058594 28.433594 24.191406 28.433594 24.324219 28.40625 C 24.457031 28.378906 24.582031 28.328125 24.695312 28.25 Z M 24.695312 28.25 " fill-opacity="1" fill-rule="nonzero"/><g clip-path="url(#e81d87a96b)"><path fill="#ffffff" d="M 31.03125 31.5 L 31.421875 29.484375 C 31.445312 29.351562 31.445312 29.21875 31.417969 29.085938 C 31.390625 28.953125 31.339844 28.828125 31.265625 28.714844 C 31.1875 28.601562 31.09375 28.507812 30.980469 28.433594 C 30.867188 28.359375 30.742188 28.308594 30.609375 28.28125 C 30.476562 28.253906 30.34375 28.253906 30.207031 28.28125 C 30.074219 28.308594 29.953125 28.359375 29.839844 28.4375 C 29.726562 28.511719 29.632812 28.609375 29.554688 28.722656 C 29.480469 28.835938 29.429688 28.960938 29.40625 29.09375 L 29.011719 31.109375 C 28.988281 31.242188 28.988281 31.378906 29.015625 31.511719 C 29.042969 31.644531 29.09375 31.769531 29.167969 31.878906 C 29.246094 31.992188 29.339844 32.085938 29.453125 32.164062 C 29.566406 32.238281 29.691406 32.289062 29.824219 32.3125 C 30.105469 32.367188 30.359375 32.316406 30.597656 32.160156 C 30.832031 32 30.976562 31.78125 31.03125 31.5 Z M 31.03125 31.5 " fill-opacity="1" fill-rule="nonzero"/></g><path fill="#ffffff" d="M 37.527344 30.746094 C 37.640625 30.667969 37.734375 30.574219 37.808594 30.460938 C 37.886719 30.347656 37.9375 30.222656 37.960938 30.089844 C 37.988281 29.957031 37.988281 29.824219 37.960938 29.691406 C 37.933594 29.554688 37.882812 29.433594 37.804688 29.320312 L 36.65625 27.617188 C 36.582031 27.503906 36.484375 27.410156 36.371094 27.335938 C 36.257812 27.257812 36.136719 27.210938 36 27.183594 C 35.867188 27.15625 35.734375 27.15625 35.601562 27.183594 C 35.464844 27.210938 35.34375 27.265625 35.230469 27.339844 C 35.117188 27.417969 35.023438 27.511719 34.949219 27.625 C 34.875 27.738281 34.824219 27.863281 34.796875 27.996094 C 34.769531 28.128906 34.769531 28.261719 34.796875 28.394531 C 34.824219 28.53125 34.878906 28.652344 34.953125 28.765625 L 36.101562 30.46875 C 36.179688 30.582031 36.273438 30.675781 36.386719 30.75 C 36.5 30.828125 36.625 30.875 36.757812 30.902344 C 36.890625 30.929688 37.023438 30.929688 37.160156 30.902344 C 37.292969 30.875 37.414062 30.820312 37.527344 30.746094 Z M 37.527344 30.746094 " fill-opacity="1" fill-rule="nonzero"/><path fill="#ffffff" d="M 37.832031 23.410156 C 37.808594 23.542969 37.808594 23.675781 37.835938 23.808594 C 37.863281 23.941406 37.914062 24.066406 37.988281 24.179688 C 38.066406 24.292969 38.160156 24.386719 38.273438 24.460938 C 38.386719 24.535156 38.511719 24.585938 38.644531 24.613281 L 40.660156 25.003906 C 40.941406 25.058594 41.199219 25.007812 41.433594 24.847656 C 41.667969 24.691406 41.8125 24.472656 41.867188 24.191406 C 41.890625 24.058594 41.890625 23.925781 41.863281 23.792969 C 41.835938 23.65625 41.785156 23.535156 41.710938 23.421875 C 41.632812 23.308594 41.539062 23.214844 41.425781 23.140625 C 41.3125 23.066406 41.1875 23.015625 41.054688 22.988281 L 39.039062 22.597656 C 38.902344 22.570312 38.769531 22.570312 38.636719 22.597656 C 38.503906 22.625 38.378906 22.675781 38.265625 22.753906 C 38.152344 22.828125 38.058594 22.921875 37.984375 23.039062 C 37.910156 23.152344 37.859375 23.273438 37.832031 23.410156 Z M 37.832031 23.410156 " fill-opacity="1" fill-rule="nonzero"/><path fill="#ffffff" d="M 36.894531 18.785156 C 36.96875 18.898438 37.066406 18.992188 37.179688 19.066406 C 37.292969 19.140625 37.414062 19.191406 37.550781 19.21875 C 37.683594 19.246094 37.816406 19.246094 37.949219 19.21875 C 38.082031 19.191406 38.207031 19.136719 38.320312 19.0625 L 40.023438 17.914062 C 40.136719 17.835938 40.230469 17.742188 40.304688 17.628906 C 40.378906 17.515625 40.429688 17.390625 40.457031 17.257812 C 40.480469 17.125 40.480469 16.992188 40.453125 16.855469 C 40.425781 16.722656 40.375 16.601562 40.300781 16.488281 C 40.222656 16.375 40.128906 16.28125 40.015625 16.207031 C 39.902344 16.128906 39.777344 16.078125 39.644531 16.054688 C 39.511719 16.027344 39.375 16.027344 39.242188 16.054688 C 39.109375 16.082031 38.984375 16.132812 38.875 16.210938 L 37.171875 17.359375 C 37.058594 17.433594 36.964844 17.53125 36.886719 17.644531 C 36.8125 17.757812 36.761719 17.878906 36.738281 18.015625 C 36.710938 18.148438 36.710938 18.28125 36.738281 18.414062 C 36.765625 18.550781 36.816406 18.671875 36.894531 18.785156 Z M 36.894531 18.785156 " fill-opacity="1" fill-rule="nonzero"/><path fill="#ffffff" d="M 33.730469 16.023438 C 33.964844 15.867188 34.109375 15.648438 34.160156 15.367188 L 34.554688 13.351562 C 34.578125 13.21875 34.578125 13.085938 34.550781 12.953125 C 34.523438 12.820312 34.472656 12.695312 34.398438 12.582031 C 34.320312 12.46875 34.226562 12.375 34.113281 12.300781 C 34 12.226562 33.875 12.175781 33.742188 12.148438 C 33.609375 12.121094 33.472656 12.125 33.339844 12.152344 C 33.207031 12.175781 33.085938 12.230469 32.972656 12.304688 C 32.859375 12.382812 32.765625 12.476562 32.6875 12.589844 C 32.613281 12.703125 32.5625 12.828125 32.539062 12.960938 L 32.144531 14.976562 C 32.121094 15.109375 32.121094 15.242188 32.148438 15.378906 C 32.175781 15.511719 32.226562 15.632812 32.300781 15.746094 C 32.378906 15.859375 32.472656 15.953125 32.585938 16.027344 C 32.699219 16.105469 32.824219 16.15625 32.957031 16.179688 C 33.238281 16.234375 33.496094 16.183594 33.730469 16.023438 Z M 33.730469 16.023438 " fill-opacity="1" fill-rule="nonzero"/></svg>