<svg xmlns="http://www.w3.org/2000/svg" xmlns:xlink="http://www.w3.org/1999/xlink" width="177" zoomAndPan="magnify" viewBox="0 0 132.75 132.749998" height="177" preserveAspectRatio="xMidYMid meet" version="1.0"><defs><clipPath id="99ca54729c"><path d="M 0 0 L 132.5 0 L 132.5 132.5 L 0 132.5 Z M 0 0 " clip-rule="nonzero"/></clipPath><clipPath id="55c153954d"><path d="M 66.25 0 C 29.660156 0 0 29.660156 0 66.25 C 0 102.839844 29.660156 132.5 66.25 132.5 C 102.839844 132.5 132.5 102.839844 132.5 66.25 C 132.5 29.660156 102.839844 0 66.25 0 Z M 66.25 0 " clip-rule="nonzero"/></clipPath><clipPath id="b3325eae20"><path d="M 9.742188 9.742188 L 122.78125 9.742188 L 122.78125 122.78125 L 9.742188 122.78125 Z M 9.742188 9.742188 " clip-rule="nonzero"/></clipPath><clipPath id="e62f81127f"><path d="M 40 66.25 L 92.898438 66.25 L 92.898438 84.964844 L 40 84.964844 Z M 40 66.25 " clip-rule="nonzero"/></clipPath><clipPath id="bb8622a9ec"><path d="M 49 68.027344 L 83.375 68.027344 L 83.375 80.007812 L 49 80.007812 Z M 49 68.027344 " clip-rule="nonzero"/></clipPath><clipPath id="31c2197e10"><path d="M 53 28.996094 L 79.183594 28.996094 L 79.183594 70.167969 L 53 70.167969 Z M 53 28.996094 " clip-rule="nonzero"/></clipPath><clipPath id="86e45ffe6b"><path d="M 61.3125 39.160156 L 66.550781 39.160156 L 66.550781 47.394531 L 61.3125 47.394531 Z M 61.3125 39.160156 " clip-rule="nonzero"/></clipPath></defs><g clip-path="url(#99ca54729c)"><g clip-path="url(#55c153954d)"><path fill="#ffffff" d="M 0 0 L 132.5 0 L 132.5 132.5 L 0 132.5 Z M 0 0 " fill-opacity="1" fill-rule="nonzero"/></g></g><g clip-path="url(#b3325eae20)"><path fill="#f38122" d="M 122.699219 66.261719 C 122.699219 68.113281 122.605469 69.960938 122.425781 71.800781 C 122.246094 73.644531 121.972656 75.472656 121.613281 77.289062 C 121.253906 79.101562 120.804688 80.898438 120.269531 82.667969 C 119.730469 84.441406 119.109375 86.179688 118.402344 87.890625 C 117.695312 89.601562 116.90625 91.273438 116.035156 92.90625 C 115.164062 94.535156 114.214844 96.121094 113.1875 97.660156 C 112.160156 99.199219 111.058594 100.6875 109.886719 102.117188 C 108.714844 103.546875 107.476562 104.917969 106.167969 106.226562 C 104.859375 107.535156 103.492188 108.777344 102.0625 109.953125 C 100.636719 111.125 99.152344 112.226562 97.617188 113.253906 C 96.078125 114.285156 94.496094 115.234375 92.867188 116.105469 C 91.234375 116.980469 89.566406 117.769531 87.859375 118.476562 C 86.152344 119.1875 84.414062 119.808594 82.644531 120.347656 C 80.875 120.882812 79.085938 121.332031 77.273438 121.695312 C 75.457031 122.054688 73.632812 122.328125 71.792969 122.507812 C 69.953125 122.691406 68.109375 122.78125 66.261719 122.78125 C 64.414062 122.78125 62.570312 122.691406 60.730469 122.507812 C 58.890625 122.328125 57.0625 122.054688 55.25 121.695312 C 53.4375 121.332031 51.648438 120.882812 49.878906 120.347656 C 48.109375 119.808594 46.371094 119.1875 44.664062 118.476562 C 42.957031 117.769531 41.289062 116.980469 39.65625 116.105469 C 38.027344 115.234375 36.445312 114.285156 34.90625 113.253906 C 33.371094 112.226562 31.886719 111.125 30.457031 109.953125 C 29.03125 108.777344 27.660156 107.535156 26.355469 106.226562 C 25.046875 104.917969 23.808594 103.546875 22.636719 102.117188 C 21.460938 100.6875 20.363281 99.199219 19.335938 97.660156 C 18.308594 96.121094 17.359375 94.535156 16.488281 92.90625 C 15.617188 91.273438 14.828125 89.601562 14.121094 87.890625 C 13.414062 86.179688 12.792969 84.441406 12.253906 82.667969 C 11.71875 80.898438 11.269531 79.101562 10.910156 77.289062 C 10.546875 75.472656 10.277344 73.644531 10.097656 71.800781 C 9.914062 69.960938 9.824219 68.113281 9.824219 66.261719 C 9.824219 64.410156 9.914062 62.5625 10.097656 60.722656 C 10.277344 58.878906 10.546875 57.050781 10.910156 55.234375 C 11.269531 53.417969 11.71875 51.625 12.253906 49.855469 C 12.792969 48.082031 13.414062 46.34375 14.121094 44.632812 C 14.828125 42.921875 15.617188 41.25 16.488281 39.617188 C 17.359375 37.984375 18.308594 36.402344 19.335938 34.863281 C 20.363281 33.324219 21.460938 31.835938 22.636719 30.40625 C 23.808594 28.976562 25.046875 27.605469 26.355469 26.296875 C 27.660156 24.988281 29.03125 23.746094 30.457031 22.570312 C 31.886719 21.398438 33.371094 20.296875 34.90625 19.269531 C 36.445312 18.238281 38.027344 17.289062 39.65625 16.417969 C 41.289062 15.542969 42.957031 14.753906 44.664062 14.046875 C 46.371094 13.335938 48.109375 12.714844 49.878906 12.175781 C 51.648438 11.640625 53.4375 11.191406 55.25 10.828125 C 57.0625 10.46875 58.890625 10.195312 60.730469 10.015625 C 62.570312 9.832031 64.414062 9.742188 66.261719 9.742188 C 68.109375 9.742188 69.953125 9.832031 71.792969 10.015625 C 73.632812 10.195312 75.457031 10.46875 77.273438 10.828125 C 79.085938 11.191406 80.875 11.640625 82.644531 12.175781 C 84.414062 12.714844 86.152344 13.335938 87.859375 14.046875 C 89.566406 14.753906 91.234375 15.542969 92.867188 16.417969 C 94.496094 17.289062 96.078125 18.238281 97.617188 19.269531 C 99.152344 20.296875 100.636719 21.398438 102.0625 22.570312 C 103.492188 23.746094 104.859375 24.988281 106.167969 26.296875 C 107.476562 27.605469 108.714844 28.976562 109.886719 30.40625 C 111.058594 31.835938 112.160156 33.324219 113.1875 34.863281 C 114.214844 36.402344 115.164062 37.984375 116.035156 39.617188 C 116.90625 41.25 117.695312 42.921875 118.402344 44.632812 C 119.109375 46.34375 119.730469 48.082031 120.269531 49.855469 C 120.804688 51.625 121.253906 53.417969 121.613281 55.234375 C 121.972656 57.050781 122.246094 58.878906 122.425781 60.722656 C 122.605469 62.5625 122.699219 64.410156 122.699219 66.261719 Z M 122.699219 66.261719 " fill-opacity="1" fill-rule="nonzero"/></g><g clip-path="url(#e62f81127f)"><path fill="#0f7f25" d="M 82.273438 66.347656 L 82.273438 68.625 C 87.414062 70.234375 90.355469 72.507812 90.355469 74.648438 C 90.355469 78.519531 80.46875 82.832031 66.308594 82.832031 C 52.144531 82.832031 42.296875 78.519531 42.296875 74.648438 C 42.296875 72.460938 45.394531 70.132812 50.757812 68.523438 L 50.757812 66.253906 C 44.277344 68.09375 40.175781 71.109375 40.175781 74.648438 C 40.175781 80.53125 51.402344 84.96875 66.308594 84.96875 C 81.210938 84.96875 92.472656 80.53125 92.472656 74.648438 C 92.472656 71.171875 88.53125 68.195312 82.277344 66.347656 Z M 82.273438 66.347656 " fill-opacity="1" fill-rule="nonzero"/></g><g clip-path="url(#bb8622a9ec)"><path fill="#0f7f25" d="M 76.488281 68.089844 L 76.488281 69.546875 C 79.820312 70.578125 81.722656 72.035156 81.722656 73.402344 C 81.722656 75.882812 75.320312 78.640625 66.148438 78.640625 C 56.972656 78.640625 50.59375 75.882812 50.59375 73.402344 C 50.59375 72.003906 52.601562 70.515625 56.074219 69.480469 L 56.074219 68.03125 C 51.875 69.210938 49.21875 71.140625 49.21875 73.402344 C 49.21875 77.167969 56.492188 80.007812 66.148438 80.007812 C 75.800781 80.007812 83.097656 77.167969 83.097656 73.402344 C 83.097656 71.179688 80.542969 69.273438 76.492188 68.089844 Z M 76.488281 68.089844 " fill-opacity="1" fill-rule="nonzero"/></g><g clip-path="url(#31c2197e10)"><path fill="#0f7f25" d="M 66.082031 31.785156 C 63.425781 35.269531 55.191406 46.777344 55.191406 55.429688 C 55.191406 66.710938 61.40625 68.015625 66.082031 68.015625 C 70.757812 68.015625 76.972656 66.710938 76.972656 55.429688 C 76.972656 46.769531 68.738281 35.265625 66.082031 31.785156 Z M 66.082031 70.167969 C 57.453125 70.167969 53.074219 65.210938 53.074219 55.429688 C 53.074219 44.382812 64.769531 29.972656 65.269531 29.363281 C 65.371094 29.246094 65.496094 29.15625 65.636719 29.089844 C 65.777344 29.027344 65.925781 28.996094 66.082031 28.996094 C 66.238281 28.996094 66.386719 29.027344 66.527344 29.089844 C 66.671875 29.15625 66.792969 29.246094 66.898438 29.363281 C 67.394531 29.972656 79.09375 44.386719 79.09375 55.429688 C 79.09375 65.210938 74.714844 70.167969 66.082031 70.167969 Z M 66.082031 70.167969 " fill-opacity="1" fill-rule="nonzero"/></g><g clip-path="url(#86e45ffe6b)"><path fill="#0f7f25" d="M 61.847656 47.304688 C 61.632812 47.203125 61.488281 47.042969 61.414062 46.824219 C 61.339844 46.605469 61.355469 46.394531 61.460938 46.1875 L 64.859375 39.617188 C 64.960938 39.40625 65.128906 39.261719 65.355469 39.183594 C 65.585938 39.109375 65.808594 39.121094 66.027344 39.226562 C 66.242188 39.332031 66.386719 39.496094 66.460938 39.71875 C 66.535156 39.941406 66.515625 40.15625 66.402344 40.363281 L 63.003906 46.933594 C 62.898438 47.136719 62.730469 47.277344 62.503906 47.347656 C 62.277344 47.421875 62.058594 47.40625 61.847656 47.304688 Z M 61.847656 47.304688 " fill-opacity="1" fill-rule="nonzero"/></g></svg>